<svg width="120" height="41" viewBox="0 0 120 41" fill="none" xmlns="http://www.w3.org/2000/svg">
<rect x="0.5" y="0.5" width="119" height="40" rx="4.5" fill="black" stroke="#838383"/>
<path d="M29.0869 16.5196L31.3266 12.6757C31.4529 12.4602 31.3765 12.1865 31.162 12.0613C30.9474 11.936 30.6682 12.0088 30.5447 12.2243L28.2756 16.1177C26.5444 15.3344 24.5957 14.8976 22.5 14.8976C20.4043 14.8976 18.4556 15.3344 16.7244 16.1177L14.4552 12.2243C14.3289 12.0088 14.0526 11.936 13.8351 12.0613C13.6176 12.1865 13.5441 12.4602 13.6705 12.6757L15.9102 16.5196C12.048 18.593 9.43206 22.466 9 27H36C35.5679 22.466 32.952 18.5929 29.0869 16.5196ZM16.3011 23.2435C15.675 23.2435 15.1695 22.7397 15.1695 22.1224C15.1695 21.5021 15.678 21.0012 16.3011 21.0012C16.9272 21.0012 17.4327 21.505 17.4327 22.1224C17.4357 22.7397 16.9272 23.2435 16.3011 23.2435ZM28.696 23.2435C28.0699 23.2435 27.5643 22.7397 27.5643 22.1224C27.5643 21.5021 28.0728 21.0012 28.696 21.0012C29.322 21.0012 29.8276 21.505 29.8276 22.1224C29.8305 22.7397 29.322 23.2435 28.696 23.2435Z" fill="#32DE84"/>
<path d="M47.1992 15H46.0117L46.0195 14.3867H47.1992C47.6055 14.3867 47.944 14.3021 48.2148 14.1328C48.4857 13.9609 48.6888 13.7214 48.8242 13.4141C48.9622 13.1042 49.0312 12.7422 49.0312 12.3281V11.9805C49.0312 11.6549 48.9922 11.3659 48.9141 11.1133C48.8359 10.8581 48.7214 10.6432 48.5703 10.4688C48.4193 10.2917 48.2344 10.1576 48.0156 10.0664C47.7995 9.97526 47.5508 9.92969 47.2695 9.92969H45.9883V9.3125H47.2695C47.6419 9.3125 47.9818 9.375 48.2891 9.5C48.5964 9.6224 48.8607 9.80078 49.082 10.0352C49.306 10.2669 49.4779 10.5482 49.5977 10.8789C49.7174 11.207 49.7773 11.5768 49.7773 11.9883V12.3281C49.7773 12.7396 49.7174 13.1107 49.5977 13.4414C49.4779 13.7695 49.3047 14.0495 49.0781 14.2812C48.8542 14.513 48.5833 14.6914 48.2656 14.8164C47.9505 14.9388 47.5951 15 47.1992 15ZM46.4141 9.3125V15H45.6602V9.3125H46.4141ZM50.6094 12.9336V12.8438C50.6094 12.5391 50.6536 12.2565 50.7422 11.9961C50.8307 11.7331 50.9583 11.5052 51.125 11.3125C51.2917 11.1172 51.4935 10.9661 51.7305 10.8594C51.9674 10.75 52.2331 10.6953 52.5273 10.6953C52.8242 10.6953 53.0911 10.75 53.3281 10.8594C53.5677 10.9661 53.7708 11.1172 53.9375 11.3125C54.1068 11.5052 54.2357 11.7331 54.3242 11.9961C54.4128 12.2565 54.457 12.5391 54.457 12.8438V12.9336C54.457 13.2383 54.4128 13.5208 54.3242 13.7812C54.2357 14.0417 54.1068 14.2695 53.9375 14.4648C53.7708 14.6576 53.569 14.8086 53.332 14.918C53.0977 15.0247 52.832 15.0781 52.5352 15.0781C52.2383 15.0781 51.9714 15.0247 51.7344 14.918C51.4974 14.8086 51.2943 14.6576 51.125 14.4648C50.9583 14.2695 50.8307 14.0417 50.7422 13.7812C50.6536 13.5208 50.6094 13.2383 50.6094 12.9336ZM51.332 12.8438V12.9336C51.332 13.1445 51.3568 13.3438 51.4062 13.5312C51.4557 13.7161 51.5299 13.8802 51.6289 14.0234C51.7305 14.1667 51.8568 14.2799 52.0078 14.3633C52.1589 14.444 52.3346 14.4844 52.5352 14.4844C52.7331 14.4844 52.9062 14.444 53.0547 14.3633C53.2057 14.2799 53.3307 14.1667 53.4297 14.0234C53.5286 13.8802 53.6029 13.7161 53.6523 13.5312C53.7044 13.3438 53.7305 13.1445 53.7305 12.9336V12.8438C53.7305 12.6354 53.7044 12.4388 53.6523 12.2539C53.6029 12.0664 53.5273 11.901 53.4258 11.7578C53.3268 11.612 53.2018 11.4974 53.0508 11.4141C52.9023 11.3307 52.7279 11.2891 52.5273 11.2891C52.3294 11.2891 52.1549 11.3307 52.0039 11.4141C51.8555 11.4974 51.7305 11.612 51.6289 11.7578C51.5299 11.901 51.4557 12.0664 51.4062 12.2539C51.3568 12.4388 51.332 12.6354 51.332 12.8438ZM56.4336 14.25L57.5195 10.7734H57.9961L57.9023 11.4648L56.7969 15H56.332L56.4336 14.25ZM55.7031 10.7734L56.6289 14.2891L56.6953 15H56.207L54.9805 10.7734H55.7031ZM59.0352 14.2617L59.918 10.7734H60.6367L59.4102 15H58.9258L59.0352 14.2617ZM58.1016 10.7734L59.1641 14.1914L59.2852 15H58.8242L57.6875 11.457L57.5938 10.7734H58.1016ZM62.1016 11.6758V15H61.3789V10.7734H62.0625L62.1016 11.6758ZM61.9297 12.7266L61.6289 12.7148C61.6315 12.4258 61.6745 12.1589 61.7578 11.9141C61.8411 11.6667 61.9583 11.4518 62.1094 11.2695C62.2604 11.0872 62.4401 10.9466 62.6484 10.8477C62.8594 10.7461 63.0924 10.6953 63.3477 10.6953C63.556 10.6953 63.7435 10.724 63.9102 10.7812C64.0768 10.8359 64.2188 10.9245 64.3359 11.0469C64.4557 11.1693 64.5469 11.3281 64.6094 11.5234C64.6719 11.7161 64.7031 11.9518 64.7031 12.2305V15H63.9766V12.2227C63.9766 12.0013 63.944 11.8242 63.8789 11.6914C63.8138 11.556 63.7188 11.4583 63.5938 11.3984C63.4688 11.3359 63.3151 11.3047 63.1328 11.3047C62.9531 11.3047 62.7891 11.3424 62.6406 11.418C62.4948 11.4935 62.3685 11.5977 62.2617 11.7305C62.1576 11.8633 62.0755 12.0156 62.0156 12.1875C61.9583 12.3568 61.9297 12.5365 61.9297 12.7266ZM66.5859 9V15H65.8594V9H66.5859ZM67.5547 12.9336V12.8438C67.5547 12.5391 67.599 12.2565 67.6875 11.9961C67.776 11.7331 67.9036 11.5052 68.0703 11.3125C68.237 11.1172 68.4388 10.9661 68.6758 10.8594C68.9128 10.75 69.1784 10.6953 69.4727 10.6953C69.7695 10.6953 70.0365 10.75 70.2734 10.8594C70.513 10.9661 70.7161 11.1172 70.8828 11.3125C71.0521 11.5052 71.181 11.7331 71.2695 11.9961C71.3581 12.2565 71.4023 12.5391 71.4023 12.8438V12.9336C71.4023 13.2383 71.3581 13.5208 71.2695 13.7812C71.181 14.0417 71.0521 14.2695 70.8828 14.4648C70.7161 14.6576 70.5143 14.8086 70.2773 14.918C70.043 15.0247 69.7773 15.0781 69.4805 15.0781C69.1836 15.0781 68.9167 15.0247 68.6797 14.918C68.4427 14.8086 68.2396 14.6576 68.0703 14.4648C67.9036 14.2695 67.776 14.0417 67.6875 13.7812C67.599 13.5208 67.5547 13.2383 67.5547 12.9336ZM68.2773 12.8438V12.9336C68.2773 13.1445 68.3021 13.3438 68.3516 13.5312C68.401 13.7161 68.4753 13.8802 68.5742 14.0234C68.6758 14.1667 68.8021 14.2799 68.9531 14.3633C69.1042 14.444 69.2799 14.4844 69.4805 14.4844C69.6784 14.4844 69.8516 14.444 70 14.3633C70.151 14.2799 70.276 14.1667 70.375 14.0234C70.474 13.8802 70.5482 13.7161 70.5977 13.5312C70.6497 13.3438 70.6758 13.1445 70.6758 12.9336V12.8438C70.6758 12.6354 70.6497 12.4388 70.5977 12.2539C70.5482 12.0664 70.4727 11.901 70.3711 11.7578C70.2721 11.612 70.1471 11.4974 69.9961 11.4141C69.8477 11.3307 69.6732 11.2891 69.4727 11.2891C69.2747 11.2891 69.1003 11.3307 68.9492 11.4141C68.8008 11.4974 68.6758 11.612 68.5742 11.7578C68.4753 11.901 68.401 12.0664 68.3516 12.2539C68.3021 12.4388 68.2773 12.6354 68.2773 12.8438ZM74.8008 14.2773V12.1016C74.8008 11.9349 74.7669 11.7904 74.6992 11.668C74.6341 11.543 74.5352 11.4466 74.4023 11.3789C74.2695 11.3112 74.1055 11.2773 73.9102 11.2773C73.7279 11.2773 73.5677 11.3086 73.4297 11.3711C73.2943 11.4336 73.1875 11.5156 73.1094 11.6172C73.0339 11.7188 72.9961 11.8281 72.9961 11.9453H72.2734C72.2734 11.7943 72.3125 11.6445 72.3906 11.4961C72.4688 11.3477 72.5807 11.2135 72.7266 11.0938C72.875 10.9714 73.0521 10.875 73.2578 10.8047C73.4661 10.7318 73.6979 10.6953 73.9531 10.6953C74.2604 10.6953 74.5312 10.7474 74.7656 10.8516C75.0026 10.9557 75.1875 11.1133 75.3203 11.3242C75.4557 11.5326 75.5234 11.7943 75.5234 12.1094V14.0781C75.5234 14.2188 75.5352 14.3685 75.5586 14.5273C75.5846 14.6862 75.6224 14.8229 75.6719 14.9375V15H74.918C74.8815 14.9167 74.8529 14.806 74.832 14.668C74.8112 14.5273 74.8008 14.3971 74.8008 14.2773ZM74.9258 12.4375L74.9336 12.9453H74.2031C73.9974 12.9453 73.8138 12.9622 73.6523 12.9961C73.4909 13.0273 73.3555 13.0755 73.2461 13.1406C73.1367 13.2057 73.0534 13.2878 72.9961 13.3867C72.9388 13.4831 72.9102 13.5964 72.9102 13.7266C72.9102 13.8594 72.9401 13.9805 73 14.0898C73.0599 14.1992 73.1497 14.2865 73.2695 14.3516C73.3919 14.4141 73.5417 14.4453 73.7188 14.4453C73.9401 14.4453 74.1354 14.3984 74.3047 14.3047C74.474 14.2109 74.6081 14.0964 74.707 13.9609C74.8086 13.8255 74.8633 13.694 74.8711 13.5664L75.1797 13.9141C75.1615 14.0234 75.112 14.1445 75.0312 14.2773C74.9505 14.4102 74.8424 14.5378 74.707 14.6602C74.5742 14.7799 74.4154 14.8802 74.2305 14.9609C74.0482 15.0391 73.8424 15.0781 73.6133 15.0781C73.3268 15.0781 73.0755 15.0221 72.8594 14.9102C72.6458 14.7982 72.4792 14.6484 72.3594 14.4609C72.2422 14.2708 72.1836 14.0586 72.1836 13.8242C72.1836 13.5977 72.2279 13.3984 72.3164 13.2266C72.4049 13.0521 72.5326 12.9076 72.6992 12.793C72.8659 12.6758 73.0664 12.5872 73.3008 12.5273C73.5352 12.4674 73.7969 12.4375 74.0859 12.4375H74.9258ZM79.3242 14.1797V9H80.0508V15H79.3867L79.3242 14.1797ZM76.4805 12.9336V12.8516C76.4805 12.5286 76.5195 12.2357 76.5977 11.9727C76.6784 11.707 76.7917 11.4792 76.9375 11.2891C77.0859 11.099 77.2617 10.9531 77.4648 10.8516C77.6706 10.7474 77.8997 10.6953 78.1523 10.6953C78.418 10.6953 78.6497 10.7422 78.8477 10.8359C79.0482 10.9271 79.2174 11.0612 79.3555 11.2383C79.4961 11.4128 79.6068 11.6237 79.6875 11.8711C79.7682 12.1185 79.8242 12.3984 79.8555 12.7109V13.0703C79.8268 13.3802 79.7708 13.6589 79.6875 13.9062C79.6068 14.1536 79.4961 14.3646 79.3555 14.5391C79.2174 14.7135 79.0482 14.8477 78.8477 14.9414C78.6471 15.0326 78.4128 15.0781 78.1445 15.0781C77.8971 15.0781 77.6706 15.0247 77.4648 14.918C77.2617 14.8112 77.0859 14.6615 76.9375 14.4688C76.7917 14.276 76.6784 14.0495 76.5977 13.7891C76.5195 13.526 76.4805 13.2409 76.4805 12.9336ZM77.207 12.8516V12.9336C77.207 13.1445 77.2279 13.3424 77.2695 13.5273C77.3138 13.7122 77.3815 13.875 77.4727 14.0156C77.5638 14.1562 77.6797 14.2669 77.8203 14.3477C77.9609 14.4258 78.1289 14.4648 78.3242 14.4648C78.5638 14.4648 78.7604 14.4141 78.9141 14.3125C79.0703 14.2109 79.1953 14.0768 79.2891 13.9102C79.3828 13.7435 79.4557 13.5625 79.5078 13.3672V12.4258C79.4766 12.2826 79.431 12.1445 79.3711 12.0117C79.3138 11.8763 79.2383 11.7565 79.1445 11.6523C79.0534 11.5456 78.9401 11.4609 78.8047 11.3984C78.6719 11.3359 78.5143 11.3047 78.332 11.3047C78.1341 11.3047 77.9635 11.3464 77.8203 11.4297C77.6797 11.5104 77.5638 11.6224 77.4727 11.7656C77.3815 11.9062 77.3138 12.0703 77.2695 12.2578C77.2279 12.4427 77.207 12.6406 77.207 12.8516ZM84.2383 15H83.5156V10.3281C83.5156 10.0234 83.5703 9.76693 83.6797 9.55859C83.7917 9.34766 83.9518 9.1888 84.1602 9.08203C84.3685 8.97266 84.6159 8.91797 84.9023 8.91797C84.9857 8.91797 85.069 8.92318 85.1523 8.93359C85.2383 8.94401 85.3216 8.95964 85.4023 8.98047L85.3633 9.57031C85.3086 9.55729 85.2461 9.54818 85.1758 9.54297C85.1081 9.53776 85.0404 9.53516 84.9727 9.53516C84.819 9.53516 84.6862 9.56641 84.5742 9.62891C84.4648 9.6888 84.3815 9.77734 84.3242 9.89453C84.2669 10.0117 84.2383 10.1562 84.2383 10.3281V15ZM85.1367 10.7734V11.3281H82.8477V10.7734H85.1367ZM85.75 12.9336V12.8438C85.75 12.5391 85.7943 12.2565 85.8828 11.9961C85.9714 11.7331 86.099 11.5052 86.2656 11.3125C86.4323 11.1172 86.6341 10.9661 86.8711 10.8594C87.1081 10.75 87.3737 10.6953 87.668 10.6953C87.9648 10.6953 88.2318 10.75 88.4688 10.8594C88.7083 10.9661 88.9115 11.1172 89.0781 11.3125C89.2474 11.5052 89.3763 11.7331 89.4648 11.9961C89.5534 12.2565 89.5977 12.5391 89.5977 12.8438V12.9336C89.5977 13.2383 89.5534 13.5208 89.4648 13.7812C89.3763 14.0417 89.2474 14.2695 89.0781 14.4648C88.9115 14.6576 88.7096 14.8086 88.4727 14.918C88.2383 15.0247 87.9727 15.0781 87.6758 15.0781C87.3789 15.0781 87.112 15.0247 86.875 14.918C86.638 14.8086 86.4349 14.6576 86.2656 14.4648C86.099 14.2695 85.9714 14.0417 85.8828 13.7812C85.7943 13.5208 85.75 13.2383 85.75 12.9336ZM86.4727 12.8438V12.9336C86.4727 13.1445 86.4974 13.3438 86.5469 13.5312C86.5964 13.7161 86.6706 13.8802 86.7695 14.0234C86.8711 14.1667 86.9974 14.2799 87.1484 14.3633C87.2995 14.444 87.4753 14.4844 87.6758 14.4844C87.8737 14.4844 88.0469 14.444 88.1953 14.3633C88.3464 14.2799 88.4714 14.1667 88.5703 14.0234C88.6693 13.8802 88.7435 13.7161 88.793 13.5312C88.8451 13.3438 88.8711 13.1445 88.8711 12.9336V12.8438C88.8711 12.6354 88.8451 12.4388 88.793 12.2539C88.7435 12.0664 88.668 11.901 88.5664 11.7578C88.4674 11.612 88.3424 11.4974 88.1914 11.4141C88.043 11.3307 87.8685 11.2891 87.668 11.2891C87.4701 11.2891 87.2956 11.3307 87.1445 11.4141C86.9961 11.4974 86.8711 11.612 86.7695 11.7578C86.6706 11.901 86.5964 12.0664 86.5469 12.2539C86.4974 12.4388 86.4727 12.6354 86.4727 12.8438ZM91.2266 11.4375V15H90.5039V10.7734H91.207L91.2266 11.4375ZM92.5469 10.75L92.543 11.4219C92.4831 11.4089 92.4258 11.401 92.3711 11.3984C92.319 11.3932 92.2591 11.3906 92.1914 11.3906C92.0247 11.3906 91.8776 11.4167 91.75 11.4688C91.6224 11.5208 91.5143 11.5938 91.4258 11.6875C91.3372 11.7812 91.2669 11.8932 91.2148 12.0234C91.1654 12.151 91.1328 12.2917 91.1172 12.4453L90.9141 12.5625C90.9141 12.3073 90.9388 12.0677 90.9883 11.8438C91.0404 11.6198 91.1198 11.4219 91.2266 11.25C91.3333 11.0755 91.4688 10.9401 91.6328 10.8438C91.7995 10.7448 91.9974 10.6953 92.2266 10.6953C92.2786 10.6953 92.3385 10.7018 92.4062 10.7148C92.474 10.7253 92.5208 10.737 92.5469 10.75Z" fill="white"/>
<path d="M50.5312 20.6328L46.7656 31H45.2266L49.5625 19.625H50.5547L50.5312 20.6328ZM53.6875 31L49.9141 20.6328L49.8906 19.625H50.8828L55.2344 31H53.6875ZM53.4922 26.7891V28.0234H47.1016V26.7891H53.4922ZM57.9844 24.3516V31H56.5391V22.5469H57.9062L57.9844 24.3516ZM57.6406 26.4531L57.0391 26.4297C57.0443 25.8516 57.1302 25.3177 57.2969 24.8281C57.4635 24.3333 57.6979 23.9036 58 23.5391C58.3021 23.1745 58.6615 22.8932 59.0781 22.6953C59.5 22.4922 59.9661 22.3906 60.4766 22.3906C60.8932 22.3906 61.2682 22.4479 61.6016 22.5625C61.9349 22.6719 62.2188 22.849 62.4531 23.0938C62.6927 23.3385 62.875 23.6562 63 24.0469C63.125 24.4323 63.1875 24.9036 63.1875 25.4609V31H61.7344V25.4453C61.7344 25.0026 61.6693 24.6484 61.5391 24.3828C61.4089 24.112 61.2188 23.9167 60.9688 23.7969C60.7188 23.6719 60.4115 23.6094 60.0469 23.6094C59.6875 23.6094 59.3594 23.6849 59.0625 23.8359C58.7708 23.987 58.5182 24.1953 58.3047 24.4609C58.0964 24.7266 57.9323 25.0312 57.8125 25.375C57.6979 25.7135 57.6406 26.0729 57.6406 26.4531ZM70.7109 29.3594V19H72.1641V31H70.8359L70.7109 29.3594ZM65.0234 26.8672V26.7031C65.0234 26.0573 65.1016 25.4714 65.2578 24.9453C65.4193 24.4141 65.6458 23.9583 65.9375 23.5781C66.2344 23.1979 66.5859 22.9062 66.9922 22.7031C67.4036 22.4948 67.862 22.3906 68.3672 22.3906C68.8984 22.3906 69.362 22.4844 69.7578 22.6719C70.1589 22.8542 70.4974 23.1224 70.7734 23.4766C71.0547 23.8255 71.276 24.2474 71.4375 24.7422C71.599 25.237 71.7109 25.7969 71.7734 26.4219V27.1406C71.7161 27.7604 71.6042 28.3177 71.4375 28.8125C71.276 29.3073 71.0547 29.7292 70.7734 30.0781C70.4974 30.4271 70.1589 30.6953 69.7578 30.8828C69.3568 31.0651 68.888 31.1562 68.3516 31.1562C67.8568 31.1562 67.4036 31.0495 66.9922 30.8359C66.5859 30.6224 66.2344 30.3229 65.9375 29.9375C65.6458 29.5521 65.4193 29.099 65.2578 28.5781C65.1016 28.0521 65.0234 27.4818 65.0234 26.8672ZM66.4766 26.7031V26.8672C66.4766 27.2891 66.5182 27.6849 66.6016 28.0547C66.6901 28.4245 66.8255 28.75 67.0078 29.0312C67.1901 29.3125 67.4219 29.5339 67.7031 29.6953C67.9844 29.8516 68.3203 29.9297 68.7109 29.9297C69.1901 29.9297 69.5833 29.8281 69.8906 29.625C70.2031 29.4219 70.4531 29.1536 70.6406 28.8203C70.8281 28.487 70.974 28.125 71.0781 27.7344V25.8516C71.0156 25.5651 70.9245 25.2891 70.8047 25.0234C70.6901 24.7526 70.5391 24.513 70.3516 24.3047C70.1693 24.0911 69.9427 23.9219 69.6719 23.7969C69.4062 23.6719 69.0911 23.6094 68.7266 23.6094C68.3307 23.6094 67.9896 23.6927 67.7031 23.8594C67.4219 24.0208 67.1901 24.2448 67.0078 24.5312C66.8255 24.8125 66.6901 25.1406 66.6016 25.5156C66.5182 25.8854 66.4766 26.2812 66.4766 26.7031ZM75.8594 23.875V31H74.4141V22.5469H75.8203L75.8594 23.875ZM78.5 22.5L78.4922 23.8438C78.3724 23.8177 78.2578 23.8021 78.1484 23.7969C78.0443 23.7865 77.9245 23.7812 77.7891 23.7812C77.4557 23.7812 77.1615 23.8333 76.9062 23.9375C76.651 24.0417 76.4349 24.1875 76.2578 24.375C76.0807 24.5625 75.9401 24.7865 75.8359 25.0469C75.737 25.3021 75.6719 25.5833 75.6406 25.8906L75.2344 26.125C75.2344 25.6146 75.2839 25.1354 75.3828 24.6875C75.487 24.2396 75.6458 23.8438 75.8594 23.5C76.0729 23.151 76.3438 22.8802 76.6719 22.6875C77.0052 22.4896 77.401 22.3906 77.8594 22.3906C77.9635 22.3906 78.0833 22.4036 78.2188 22.4297C78.3542 22.4505 78.4479 22.474 78.5 22.5ZM79.2969 26.8672V26.6875C79.2969 26.0781 79.3854 25.513 79.5625 24.9922C79.7396 24.4661 79.9948 24.0104 80.3281 23.625C80.6615 23.2344 81.0651 22.9323 81.5391 22.7188C82.013 22.5 82.5443 22.3906 83.1328 22.3906C83.7266 22.3906 84.2604 22.5 84.7344 22.7188C85.2135 22.9323 85.6198 23.2344 85.9531 23.625C86.2917 24.0104 86.5495 24.4661 86.7266 24.9922C86.9036 25.513 86.9922 26.0781 86.9922 26.6875V26.8672C86.9922 27.4766 86.9036 28.0417 86.7266 28.5625C86.5495 29.0833 86.2917 29.5391 85.9531 29.9297C85.6198 30.3151 85.2161 30.6172 84.7422 30.8359C84.2734 31.0495 83.7422 31.1562 83.1484 31.1562C82.5547 31.1562 82.0208 31.0495 81.5469 30.8359C81.0729 30.6172 80.6667 30.3151 80.3281 29.9297C79.9948 29.5391 79.7396 29.0833 79.5625 28.5625C79.3854 28.0417 79.2969 27.4766 79.2969 26.8672ZM80.7422 26.6875V26.8672C80.7422 27.2891 80.7917 27.6875 80.8906 28.0625C80.9896 28.4323 81.138 28.7604 81.3359 29.0469C81.5391 29.3333 81.7917 29.5599 82.0938 29.7266C82.3958 29.888 82.7474 29.9688 83.1484 29.9688C83.5443 29.9688 83.8906 29.888 84.1875 29.7266C84.4896 29.5599 84.7396 29.3333 84.9375 29.0469C85.1354 28.7604 85.2839 28.4323 85.3828 28.0625C85.487 27.6875 85.5391 27.2891 85.5391 26.8672V26.6875C85.5391 26.2708 85.487 25.8776 85.3828 25.5078C85.2839 25.1328 85.1328 24.8021 84.9297 24.5156C84.7318 24.224 84.4818 23.9948 84.1797 23.8281C83.8828 23.6615 83.5339 23.5781 83.1328 23.5781C82.737 23.5781 82.388 23.6615 82.0859 23.8281C81.7891 23.9948 81.5391 24.224 81.3359 24.5156C81.138 24.8021 80.9896 25.1328 80.8906 25.5078C80.7917 25.8776 80.7422 26.2708 80.7422 26.6875ZM90.375 22.5469V31H88.9219V22.5469H90.375ZM88.8125 20.3047C88.8125 20.0703 88.8828 19.8724 89.0234 19.7109C89.1693 19.5495 89.3828 19.4688 89.6641 19.4688C89.9401 19.4688 90.151 19.5495 90.2969 19.7109C90.4479 19.8724 90.5234 20.0703 90.5234 20.3047C90.5234 20.5286 90.4479 20.7214 90.2969 20.8828C90.151 21.0391 89.9401 21.1172 89.6641 21.1172C89.3828 21.1172 89.1693 21.0391 89.0234 20.8828C88.8828 20.7214 88.8125 20.5286 88.8125 20.3047ZM98.0234 29.3594V19H99.4766V31H98.1484L98.0234 29.3594ZM92.3359 26.8672V26.7031C92.3359 26.0573 92.4141 25.4714 92.5703 24.9453C92.7318 24.4141 92.9583 23.9583 93.25 23.5781C93.5469 23.1979 93.8984 22.9062 94.3047 22.7031C94.7161 22.4948 95.1745 22.3906 95.6797 22.3906C96.2109 22.3906 96.6745 22.4844 97.0703 22.6719C97.4714 22.8542 97.8099 23.1224 98.0859 23.4766C98.3672 23.8255 98.5885 24.2474 98.75 24.7422C98.9115 25.237 99.0234 25.7969 99.0859 26.4219V27.1406C99.0286 27.7604 98.9167 28.3177 98.75 28.8125C98.5885 29.3073 98.3672 29.7292 98.0859 30.0781C97.8099 30.4271 97.4714 30.6953 97.0703 30.8828C96.6693 31.0651 96.2005 31.1562 95.6641 31.1562C95.1693 31.1562 94.7161 31.0495 94.3047 30.8359C93.8984 30.6224 93.5469 30.3229 93.25 29.9375C92.9583 29.5521 92.7318 29.099 92.5703 28.5781C92.4141 28.0521 92.3359 27.4818 92.3359 26.8672ZM93.7891 26.7031V26.8672C93.7891 27.2891 93.8307 27.6849 93.9141 28.0547C94.0026 28.4245 94.138 28.75 94.3203 29.0312C94.5026 29.3125 94.7344 29.5339 95.0156 29.6953C95.2969 29.8516 95.6328 29.9297 96.0234 29.9297C96.5026 29.9297 96.8958 29.8281 97.2031 29.625C97.5156 29.4219 97.7656 29.1536 97.9531 28.8203C98.1406 28.487 98.2865 28.125 98.3906 27.7344V25.8516C98.3281 25.5651 98.237 25.2891 98.1172 25.0234C98.0026 24.7526 97.8516 24.513 97.6641 24.3047C97.4818 24.0911 97.2552 23.9219 96.9844 23.7969C96.7188 23.6719 96.4036 23.6094 96.0391 23.6094C95.6432 23.6094 95.3021 23.6927 95.0156 23.8594C94.7344 24.0208 94.5026 24.2448 94.3203 24.5312C94.138 24.8125 94.0026 25.1406 93.9141 25.5156C93.8307 25.8854 93.7891 26.2812 93.7891 26.7031Z" fill="white"/>
</svg>
